<?xml version="1.0" standalone="no"?>
<!DOCTYPE svg PUBLIC "-//W3C//DTD SVG 20010904//EN"
 "http://www.w3.org/TR/2001/REC-SVG-20010904/DTD/svg10.dtd">
<svg version="1.0" xmlns="http://www.w3.org/2000/svg"
 width="16.000000pt" height="16.000000pt" viewBox="0 0 16.000000 16.000000"
 preserveAspectRatio="xMidYMid meet">

<g transform="translate(0.000000,16.000000) scale(0.100000,-0.100000)"
fill="#000000" stroke="none">
<path d="M67 116 c3 -15 10 -23 18 -20 11 4 10 10 -3 25 -21 24 -20 24 -15 -5z"/>
<path d="M117 79 c4 -13 8 -18 11 -10 2 7 -1 18 -6 23 -8 8 -9 4 -5 -13z"/>
<path d="M59 38 c14 -19 61 -25 61 -9 0 5 -9 7 -20 4 -11 -3 -28 1 -38 8 -15
13 -16 12 -3 -3z"/>
</g>
</svg>
